<?xml version="1.0" encoding="utf-8"?>
<!-- Generator: Adobe Illustrator 24.0.1, SVG Export Plug-In . SVG Version: 6.00 Build 0)  -->
<svg version="1.1" id="Calque_1" xmlns="http://www.w3.org/2000/svg" xmlns:xlink="http://www.w3.org/1999/xlink" x="0px" y="0px"
	 viewBox="0 0 16 16" style="enable-background:new 0 0 16 16;" xml:space="preserve">
<style type="text/css">
	.st0{fill:#062b5a;}
</style>
<path class="st0" d="M8,1c1.1,0,2,0.9,2,2v4H6V3C6,1.9,6.9,1,8,1z M11,7V3c0-1.7-1.3-3-3-3S5,1.3,5,3v4C3.9,7,3,7.9,3,9v5
	c0,1.1,0.9,2,2,2h6c1.1,0,2-0.9,2-2V9C13,7.9,12.1,7,11,7z"/>
</svg>
